<svg width="647" height="589" viewBox="0 0 647 589" fill="none" xmlns="http://www.w3.org/2000/svg">
<path d="M439.817 268.852C471.499 318.268 487.34 342.976 509.933 344.52C511.975 344.66 514.025 344.66 516.067 344.52C538.66 342.976 554.501 318.268 586.183 268.852V268.852C622.599 212.054 640.806 183.654 630.647 161.348C629.74 159.355 628.688 157.431 627.5 155.591C614.205 135 580.47 135 513 135V135C445.53 135 411.795 135 398.5 155.591C397.312 157.431 396.26 159.355 395.353 161.348C385.194 183.654 403.401 212.054 439.817 268.852V268.852Z" fill="#5FBE68"/>
<circle cx="513" cy="134" r="134" fill="#5FBE68"/>
<path d="M302 464.5C302 495.928 287.882 526.069 262.752 548.292C237.622 570.515 203.539 583 168 583C132.461 583 98.3776 570.515 73.2477 548.292C48.1178 526.069 34 495.928 34 464.5" stroke="white" stroke-width="11"/>
<path d="M570 464.5C570 495.928 555.882 526.069 530.752 548.292C505.622 570.515 471.539 583 436 583C400.461 583 366.378 570.515 341.248 548.292C316.118 526.069 302 495.928 302 464.5" stroke="white" stroke-width="11"/>
<circle cx="90" cy="135" r="90" fill="white"/>
<circle cx="513" cy="134" r="90" fill="white"/>
<path d="M289.656 478.425C295.633 486.879 308.175 486.879 314.152 478.425L415.082 335.659C422.105 325.724 415.001 312 402.833 312H200.974C188.807 312 181.702 325.724 188.726 335.659L289.656 478.425Z" fill="white"/>
</svg>
